<svg xmlns="http://www.w3.org/2000/svg" height="800" width="1200" viewBox="-22.5 -29.96025 195 179.7615"><path d="M48.606 94.86l88.011 8.495.022-11.069-15.76-6.447zm63.287-71.285c1.107-1.986 3.295-2.503 4.602-1.63l.06-.106 7.71 4.412-1.566-6.568-10.818-6.445zM98.045 69.142l1.44-1.52-11.105-4.634zM63.13 73.147c-4.81.808-8.436 3.94-8.09 6.988.337 3.046 4.526 4.845 9.344 4.036 4.815-.813 8.436-3.938 8.089-6.984-.34-3.047-4.525-4.854-9.342-4.04m48.055-27.22l.58-1.382-6.157-3.17zM96.92 47.65l-1.903.43v2.58l1.608-.359c1.265-.277 1.517-.684 1.517-1.588 0-.91-.27-1.272-1.221-1.063m-14.271.96l-3.113-1.357v8.562c-.013 1.253-.23 2.37 1.486 2.042 1.506-.281 1.613-1.238 1.642-2.625v-1.7h-.008l-.008-4.922zM57.537 59.807V55.89l-5.53-2.329zm17.887-42.523c-5.47 1.635-9.905 7.392-9.905 12.873 0 5.46 4.434 8.565 9.905 6.923 5.466-1.63 9.9-7.394 9.9-12.863 0-5.463-4.434-8.577-9.9-6.933"/><path d="M139.238 83.964a4.122 4.122 0 01-4.716-3.441l8.15-1.275a4.124 4.124 0 01-3.434 4.716M10.69 89.098a4.734 4.734 0 01-3.832-5.493l9.34 1.656a4.752 4.752 0 01-5.508 3.837M98.884 22.97l3.062-.901v3.856l3.982-1.054v3.123l-3.982 1.076v7.419c0 .021-3.062.69-3.062.69zM131.12 0l8.196 77.936-2.817.333-2.897-12.32-14.842-7.059-14.01 14.223 11.193 7.44-11.843 1.613-6.054-3.395-3.359 4.002-.667.78-12.067 1.644 9.534-10.127-.374.066-15.726-8.652s-4.964.93-4.95.915c3.881.267 10.27 3.048 10.894 8.298.04.364-.034.724-.046 1.093h-.002c-.114 2.86-1.88 5.706-4.737 8.023-.107.083-.231.158-.34.253-.517.398-1.078.774-1.664 1.146l-20.73 2.831c-.387-.097-.78-.175-1.127-.296-2.096-.848-3.752-2.071-4.877-3.555-2.578-3.992-.927-9.52 2.033-11.294l-5.005-2.873v6.07L33.65 79.169l-.131.024v3.77L43.79 81.29v4.61l-10.272 1.889v4.038l-6.938.94V76.873l-2.482-.81v-2.524s96.049-18.179 96.1-18.147c.032.017 7.195 3.463 12.314 5.925l-4.293-18.273-.012.01-.049-.18-8.693-4.573-4.17 7.727-1.472 2.72v5.391l-5.852.979v-5.389l-8.404-6.794-.81.235c1.931.816 3.898 3.32 3.898 4.636 0 .347-.029.743-.09 1.141-.017.129-.058.265-.09.41-.058.27-.12.542-.218.814-.053.139-.119.277-.182.415-.121.26-.28.515-.459.746-.087.107-.163.216-.255.308-.308.318-.66.585-1.115.753l5.455 3.312-5.787 1.127c-1.79-.962-4.898-2.474-4.898-2.474l-.004 3.426-4.505.877v-6.929h-.002v-4.67l-3.232-1.546v7.819c-.048 2.79-1.012 5.08-2.95 6.528l-7.266 1.403c-.823-.286-1.41-.66-1.782-1.76-.226-4.138-.343-10.467-.343-10.467l-.825-.568v4.053l-3.871.7v9.358l-3.691.722v-9.257l-3.58.854-.119-2.41-2.05-.805v12.74l-3.703.706-5.085-5.367v6.353l-3.545.678V61.4l-.02.004v-5.828l-2.26-.804v2.972l-5.219.964v1.817l4.158-.785v2.971l-4.158.786v1.994l5.219-1.008v2.768l-8.992 1.741v-8.97l-3.723-1.38a4.962 4.962 0 012.472 1.907L33 62.618c-.457-.62-1.198-1.005-2.097-1.005-.604 0-1.165.225-1.687.522a4.54 4.54 0 00-.364.216 3.62 3.62 0 00-.457.393 3.481 3.481 0 00-.413.488c-.09.117-.177.226-.257.364a3.28 3.28 0 00-.391 1.064c-.292 1.683.833 3.048 2.523 3.048 1.105 0 2.173-.586 2.86-1.477l2.997 1.061c-.624 1.003-1.496 1.836-2.474 2.468l-5.455 1.054c-2.649-.69-4.276-3.17-3.761-6.154.265-1.583 1.117-3.026 2.275-4.138l-2.09-.757v-2.618s96.121-22.446 96.17-22.419c.017.02 3.412 1.848 6.743 3.638l-2.576-10.632-7.217-3.91v8.978l-2.703.697v-5.976c0-2.6-1.265-2.907-2.73-1.333v7.878c0 .034-3.062.925-3.062.925V22.669l-17.557-10.01c1.992 2.395 2.973 5.02 2.973 8.893 0 7.006-3.837 14.271-9.527 19.218l-20.816 4.76c-4.446-2.113-7.309-6.652-7.309-12.708 0-2.662.566-5.364 1.564-7.963l-5.333-2.302c1.348 1.695 1.749 3.439 1.43 5.734-.832 6.068-11.52 16.748-11.52 16.748l12.15-2.72v5.33L26.87 54.323v-2.885S42.74 33.73 44.629 31.639c1.884-2.1 1.843-7.47-2.941-6.076-5.022 1.462-5.49 5.236-5.49 5.236l-9.17 2.52c2.615-5.347 4.087-10.9 13.931-13.911 3.449-1.054 6.4-.729 8.68.393l.045-.092 9.136 3.773c3.043-7.222 9.133-12.892 16.605-15.128 4.81-1.436 9.191-.923 12.523 1.058l.039-.082 20.847 11.875v-8.342l3.063-.906v.046l.053-.092 10.389 6.124L118.094 0H29.002L13.616 82.13l-2.926-.216L14.034 0H.002v113.02l7.441-.701V93.856c0-1.884 6.384-1.051 6.384.209v17.679l7.438-.71c-4.92-4.402-2.256-14.983 7.334-16.236 4.82-.626 91.867-12.375 91.867-12.375l16.18 6.455v-1.464c0-1.89 5.972-1.465 5.972-.212v16.72l7.382.745V0h-18.878z"/><path d="M30.593 113.336L0 115.756v4.085h149.998v-11.826C140.172 106.99 38.99 96.408 37.19 96.265c-17.916-1.465-19.902 15.713-6.597 17.07"/></svg>