<svg xmlns="http://www.w3.org/2000/svg" xmlns:xlink="http://www.w3.org/1999/xlink" height="800" width="1200" viewBox="-64.05 -18.25 555.1 109.5"><defs><linearGradient id="a" y2=".7202" x2="1" y1=".2798" x1="0"><stop offset="0%" stop-color="#FF4C1D"/><stop offset="100%" stop-color="#9B0063"/></linearGradient><linearGradient gradientUnits="userSpaceOnUse" gradientTransform="scale(1.22754 .81464)" y2="64.5379" x2="89.6103" y1="25.0724" x1="0" id="b" xlink:href="#a"/></defs><g fill="none"><path d="M.9245 21.299A2.194 2.194 0 000 23.0773v.0273c.0026.2901.0629.5841.1873.8638L10.7158 47.713c.4662 1.0524 1.6697 1.5676 2.7605 1.1825 6.8933-2.447 30.7647-10.1883 46.2131-6.0126 0 0-15.4969.8924-29.5101 11.8314-.7897.6179-1.0529 1.6924-.6482 2.6056 1.138 2.5588 3.4218 7.7024 4.7143 10.6098l1.815 4.2382c.4321 1.0056 1.8123 1.1266 2.4213.216 3.2698-4.9017 8.783-7.3499 14.0787-9.4872 5.4253-2.188 11.0864-3.8207 16.8614-4.7924 6.1534-1.0355 12.4365-1.3126 18.6555-.7649 1.0358.091 1.997-.5412 2.306-1.5272l4.7562-15.1316c.2803-.895-.0419-1.8733-.8066-2.4235-5.3036-3.8246-26.3123-16.6706-63.2566-11.51 0 0 31.5255-18.0274 71.5485 1.7756 1.2126.601 2.6766-.03 3.0813-1.3126l4.193-13.3442a2.1963 2.1963 0 00.1009-.6231v-.0638a2.1875 2.1875 0 00-1.1144-1.872C103.8623 8.4778 86.8555 0 63.4608 0 45.5295-.0013 23.8478 4.9784.9245 21.299" fill="url(#b)"/><path d="M216.2448 65.9355h-7.1509a2.0334 2.0334 0 01-1.44-.5984 2.046 2.046 0 01-.5966-1.4445v-41.49h-17.5175c-1.1211-.0051-2.0273-.9182-2.0273-2.0429v-6.4265c0-1.1283.9118-2.0429 2.0365-2.0429h46.253c1.1247 0 2.0365.9146 2.0365 2.0429v6.4265c0 1.1283-.9118 2.0429-2.0366 2.0429h-17.5205v41.49a2.046 2.046 0 01-.5965 1.4445c-.382.3832-.9.5984-1.44.5984zm-33.4302-3.923c2.6215-2.6295 3.6934-5.9749 3.6934-11.5413V49.055c0-5.5725-1.0719-8.9087-3.6934-11.5445-2.7777-2.7893-6.4588-3.926-12.694-3.926h-22.6411a3.388 3.388 0 01-2.4005-.998 3.409 3.409 0 01-.9928-2.4087v-4.3715c0-1.8798 1.5193-3.4037 3.3933-3.4037h32.4135c1.1247 0 2.0365-.9146 2.0365-2.0429v-6.4265c0-1.1283-.9118-2.0429-2.0365-2.0429h-30.5056c-6.2383 0-9.9163 1.1366-12.697 3.926C134.0687 18.4459 133 21.7913 133 27.3577v1.1182c0 5.5818 1.0688 8.9148 3.6903 11.5444 2.7808 2.7894 6.4588 3.926 12.6971 3.926h22.7238c1.8745 0 3.3946 1.5234 3.3963 3.4038v4.6663c0 1.8815-1.5206 3.4068-3.3963 3.4068h-34.1377c-1.1248 0-2.0366.9146-2.0366 2.0429v6.4265a2.046 2.046 0 00.5965 1.4445c.382.3832.9.5984 1.4401.5984h32.1562c6.2292 0 9.9072-1.1366 12.6849-3.923zm161.804-23.2486v.3717c0 10.414-1.6445 15.753-6.2903 20.4133C334.0408 63.8496 327.6585 66 319.3163 66h-24.6715c-1.1248 0-2.0366-.9146-2.0366-2.0429v-50.024c0-1.1282.9118-2.0428 2.0366-2.0428h24.6807c8.3422 0 14.7367 2.175 19.012 6.4512 4.6458 4.657 6.2811 10.0115 6.2811 20.4224zm-11.221 0c0-6.9304-.4379-10.2634-3.1482-12.9821-2.2172-2.2241-5.7912-3.3024-10.9331-3.3024h-15.484v32.9438h15.4932c5.1419 0 8.7189-1.0813 10.933-3.3054 2.7104-2.7157 3.1483-6.0518 3.1483-12.9822zm29.4245 25.1287V13.9332c0-1.1283-.9118-2.0429-2.0365-2.0429h-7.1418c-1.1247 0-2.0365.9146-2.0365 2.0429v49.9594c0 1.1283.9118 2.0429 2.0365 2.0429h7.151a2.0334 2.0334 0 001.44-.5984 2.046 2.046 0 00.5965-1.4445zm-76.789 2.0429h-7.5644c-1.0613-.001-2.025-.621-2.4684-1.5882l-3.479-7.557h-28.074l-3.485 7.56c-.4412.9598-1.3964 1.5766-2.45 1.5821h-7.6012a2.0351 2.0351 0 01-1.7252-.9544 2.0483 2.0483 0 01-.1123-1.9732l22.9688-47.9719c1.2001-2.4653 3.6961-4.029 6.4312-4.029 2.7351 0 5.2311 1.5637 6.4313 4.029l22.9687 47.9658a2.0483 2.0483 0 01-.1046 1.9773 2.0351 2.0351 0 01-1.7268.9595zm-37.0012-19.1507h18.917l-9.4385-21.5929zm175.9283 19.1507h-7.5797c-1.0614-.0002-2.0256-.6205-2.4683-1.5882l-3.473-7.557h-28.0738l-3.4821 7.56c-.443.9583-1.397 1.5744-2.45 1.5821h-7.6011a2.0351 2.0351 0 01-1.7253-.9544 2.0483 2.0483 0 01-.1122-1.9732l22.9687-47.9719C392.162 12.5656 394.6584 11 397.3947 11c2.7362 0 5.2327 1.5656 6.4312 4.033l22.9688 47.9657a2.0483 2.0483 0 01-.1055 1.9786 2.0351 2.0351 0 01-1.729.9582zM387.95 46.7848h18.917l-9.4355-21.5929z" fill="#3C4043"/></g></svg>