<svg xmlns="http://www.w3.org/2000/svg" height="800" width="1200" viewBox="-146.6082 -103.257 1270.6044 619.542"><path fill="#f9a721" d="M180.866 18.608c-118.88 31.191-190.61 155.5-159.78 277.1 12.057 47.891 38.359 88.024 72.609 117.32-41.304-29.866-72.862-74.314-86.6-128.31-30.63-121.88 40.716-245.9 159.9-277.34 72.453-19.298 145.62.391 198.97 45.844-51.767-37.47-118.73-52.327-185.1-34.61"/><path fill="#f9a721" d="M103.286 396.888h-3.988v11.354H97.74v-11.354h-3.99v-1.193h9.536zm15.194 11.354h-1.551v-11.229h-.055l-4.32 11.23h-1.011l-4.327-11.23h-.06v11.23h-1.55v-12.549h2.86l3.576 9.27h.059l3.52-9.27h2.857z"/><path fill="#4c4f52" d="M229.066 183.918c-7.952 0-18.025 2.916-18.025 13.52 0 9.012 7.687 11.932 19.88 15.908 23.33 7.423 53.554 22.266 53.554 57.791 0 42.151-31.553 60.972-66.013 60.972-24.39 0-49.043-9.542-64.421-26.242 8.752-10.608 17.5-21.475 26.246-32.079 8.219 7.688 25.45 14.845 38.175 14.845 9.013 0 17.234-5.3 17.234-17.496 0-9.012-11.137-13.788-19.885-16.434-33.138-10.077-53.284-20.15-53.284-57.264 0-40.03 34.46-57.26 66.804-57.26 19.073 0 40.459 7.98 53 20.39.185.182 5.697 5.54 5.697 5.8v25.504H274.17v19.25c0-.278-17.674-16.718-17.882-16.906-6.973-6.299-18.473-10.297-27.223-10.297"/><path fill="#4c4f52" d="M339.146 149.258v46.658h18.589l11.045 41.886h-29.634v37.646c0 11.133 7.157 11.662 12.728 11.662 3.532 0 7.545-.48 10.209-.984.135-.025 9.945-1.745 9.945-2.087l-.005 43.367c-5.305 1.06-13.788 2.12-20.15 2.12-26.772 0-59.911-2.65-59.911-54.079v-37.646h-13.788v-41.886h13.788v-46.658zm36.986 179.05v-132.55h43.48l1.06 27.038h.527c6.097-17.23 22.535-28.098 39.235-28.098 4.46 0 8.69.463 12.684 1.39.28.063 7.445 1.84 11.653 4.612-6.98 4.004-8.93 5.645-14.062 10.265 21.35 24.225 10.162 11.906 28.434 31.718 0 0-28.65-3.505-29.173-3.588-1.444-.228-4.724-.656-9.005-.656-11.93 0-30.753 2.916-37.644 19.616v70.253z"/><path fill="#4c4f52" d="M545.956 279.788c-17.76.265-33.4 2.651-33.4 11.398 0 5.836 7.688 7.691 14.312 7.691 7.16 0 13.522-3.184 19.089-6.36zm-69.72-68.397c11.929-10.604 33.135-18.82 58.587-18.82 32.074 0 58.32 15.904 58.32 47.982v25.451c0 14.05 5.832 19.881 11.933 19.881.993 0 1.689 0 2.088-.112.132-.037 5.819-.6 12.593-5.835.36 18.46 5.15 27.885 7.623 30.975-4.944 8.033-18.65 15.026-18.757 15.07-.943.391-5.97 2.317-13.354 2.317-14.053 0-27.573-5.832-36.055-15.64h-.53c-11.667 10.602-25.716 18.824-41.886 18.824-22.8 0-49.576-9.812-49.576-41.094 0-30.485 38.175-39.762 78.735-41.09v-2.118c0-8.22-9.808-12.197-21.206-12.197-8.752 0-16.17 3.181-20.415 7.157z"/><path fill="#4c4f52" d="M671.056 149.098v46.658h18.589l11.045 41.886h-29.634v37.646c0 11.133 7.157 11.662 12.728 11.662 3.43 0 7.313-.452 9.974-.94.217-.04 8.067-1.48 12.125-2.72 2.58 26.285 18.114 39.082 18.114 39.082-12.113 3.216-20.506 4.961-20.734 5.005-5.33 1.015-13.38 1.99-19.48 1.99-26.773 0-59.912-2.652-59.912-54.08v-37.646h-13.788v-41.886h13.788v-46.658z"/><path fill="#4c4f52" d="M842.506 195.998v132.55h-43.48l-1.06-21.475h-.527c-6.097 17.234-22.531 24.657-39.235 24.657-33.404 0-50.37-28.894-50.37-72.374V196h47.185v63.357c0 18.03 6.63 29.958 19.62 29.958 9.28 0 15.374-3.71 20.679-11.664V196zm95.198 46.386s-9.013-7.423-22.531-7.423c-4.772 0-9.546 1.325-9.546 4.772 0 3.445 10.34 4.772 22.27 8.748 15.378 5.301 33.403 15.378 33.403 41.355 0 27.038-19.085 41.887-52.224 41.887-32.318 0-51.69-16.016-54.925-18.91-.321-.287-7.444-6.82-7.444-6.82 0-49.955.075-13.64 0-53.992 0 .192 30.597 27.225 30.767 27.366 3.85 3.2 13.814 10.734 25.237 10.734 5.57 0 10.868-1.325 10.868-5.036 0-4.24-10.868-5.303-23.062-9.546-15.374-5.299-32.607-15.11-32.607-41.352 0-29.162 22.799-41.356 53.549-41.356 29.695 0 45.6 14.58 45.6 14.58zm29.999-45.506h.904c1.053 0 1.905-.35 1.905-1.204 0-.752-.552-1.255-1.756-1.255-.501 0-.853.051-1.053.1zm-.05 4.667h-1.906v-8.228c.753-.152 1.807-.252 3.16-.252 1.556 0 2.259.252 2.86.603.452.351.803 1.003.803 1.805 0 .904-.703 1.605-1.705 1.907v.101c.803.3 1.255.903 1.505 2.007.25 1.253.4 1.755.6 2.057h-2.056c-.25-.303-.401-1.055-.652-2.008-.15-.903-.652-1.304-1.705-1.304h-.903zm-5.067-4.316c0 3.663 2.709 6.573 6.423 6.573 3.612 0 6.27-2.91 6.27-6.523 0-3.663-2.658-6.623-6.32-6.623-3.662 0-6.372 2.96-6.372 6.572m14.8 0c0 4.667-3.662 8.33-8.428 8.33-4.716 0-8.48-3.664-8.48-8.33 0-4.565 3.764-8.228 8.48-8.228 4.767 0 8.429 3.663 8.429 8.228"/></svg>