<svg xmlns="http://www.w3.org/2000/svg" height="800" width="1200" xml:space="preserve" y="0" x="0" id="Layer_2" version="1.1" viewBox="-111.63 -56.25 967.46 337.5"><style id="style18" type="text/css">.st0{fill:#f9d047}</style><g id="g52"><path id="polygon20" class="st0" d="M66 112.8L52.7 55.6H6.3L0 164.9h35.9l1.1-58.4 13.3 58.4h31.4L95 106.5l1.2 58.4h35.9l-6.3-109.3H79.4z"/><path id="path22" d="M338.6 123.4c5.2-3.1 17.9-11.2 17.9-32.8 0-11.2-4.9-21.1-13.6-27.1-7.7-5.4-17.8-7.9-31.7-7.9h-47.6v109.3h36.5v-36.1h3.7l17.3 36.1h42zm-18.9-31.2c0 4.4-2 5.8-3.7 7.1-1 .8-3.2 1.8-7.5 1.8H300V83.3h8.4c3.5 0 5.9.6 7.5 1.9l.1.1c1.6 1.1 3.7 2.5 3.7 6.9z" class="st0"/><path id="path24" d="M431.6 55.6v41.3c0 5.7.4 13.4.6 17.3l-30.3-58.3-.1-.3h-39.2v109.3H398v-41.3c0-5.7-.4-13.6-.6-17.4l31.9 58.4.1.3h37.7V55.6z" class="st0"/><path id="rect26" class="st0" d="M477.9 55.6h36.5v109.3h-36.5z"/><path id="path28" d="M594.1 55.6v41.3c0 5.7.4 13.4.6 17.3l-30.3-58.3-.1-.3h-39.2v109.3h35.5v-41.3c0-5.7-.4-13.6-.6-17.4l31.9 58.4.1.3h37.7V55.6z" class="st0"/><path id="path30" d="M691.4 98.4v27.2h16.5v7.2c-.5.6-3.5 3.6-14.4 3.6-13.3 0-21.9-10.3-21.9-26.2 0-15.9 8.6-26.2 21.9-26.2 12.3 0 19.3 7 21.6 9.3l.3.3 24.3-20.3-.4-.4-.8-.8c-4.2-4.5-17.1-18.1-45.1-18.1-15.8 0-30.2 4.8-40.5 13.6-11.8 10-18 24.7-18 42.7 0 38.9 29 56.4 57.8 56.4 28.7 0 41.6-11.7 50.1-19.5l.6-.6V98.4z" class="st0"/><g id="g36"><circle id="circle32" r="59.8" cy="111.6" cx="197.9" class="st0"/><path id="path34" d="M197.9 171.9c-33.2 0-60.3-27-60.3-60.3s27-60.3 60.3-60.3c33.2 0 60.3 27 60.3 60.3s-27 60.3-60.3 60.3zm0-119.5c-32.7 0-59.3 26.6-59.3 59.3 0 32.7 26.6 59.3 59.3 59.3 32.7 0 59.3-26.6 59.3-59.3 0-32.7-26.6-59.3-59.3-59.3z" class="st0"/></g><path id="polygon38" class="st0" d="M14.6 44.8H30V12.2h10.3V0h-36v12.2h10.3z"/><path id="polygon40" class="st0" d="M57.8 0H42.5v44.8h15.3V28.6h11v16.2h15.3V0H68.8v15.9h-11z"/><path id="polygon42" class="st0" d="M120 28.3V16.1h-15.9v-3.8H121V0H88.9v44.8h32.7V32.4h-17.5v-4.1z"/><path id="path44" d="M561 196.2c-1.8-1.5-4.7-3-8.4-4.3-1.1-.4-2.8-.9-4.2-1.3-.7-.2-1.3-.4-1.7-.5l-.4-.1c-1-.3-2.7-.8-2.7-1.7 0-.7.4-1.5 3.5-1.5 2.6 0 7.8 1.4 11.4 4.6l.5.4 6.7-12.4-.3-.3c-4.5-3.7-11.4-6.1-18-6.1-6.2 0-11.5 1.6-14.9 4.4-1.8 1.5-5.9 5.6-5.9 12.4 0 6.2 2.7 9.2 4.7 10.9 2.3 1.9 4.8 2.9 6.4 3.5l.6.2c1.4.5 5.4 1.8 7.2 2.3 1.7.5 3.2 1 3.2 2.1 0 1.4-2.2 1.6-3.2 1.6-2.2 0-8.5-1.6-12.9-5.3l-.5-.4-7.7 13.1.4.3c6 4.4 12.5 6.7 19.4 6.7 6.2 0 11.1-1.4 14.9-4.3 4.2-3.3 6.6-8.1 6.6-13.3.1-4.5-1.5-8.2-4.7-11z" class="st0"/><path id="polygon46" class="st0" d="M585.6 173.7h-17.2v50.5h17.2v-18.3h12.5v18.3h17.2v-50.5h-17.2v17.9h-12.5z"/><path id="path48" d="M644.9 172.9c-16.4 0-27.4 10.5-27.4 26.1 0 15.6 11 26 27.4 26s27.4-10.5 27.4-26c0-15.6-11-26.1-27.4-26.1zm0 36.8c-6 0-10.1-4.4-10.1-11s4.1-11 10.1-11c6.1 0 10 4.3 10 11 .1 6.6-3.9 11-10 11z" class="st0"/><path id="polygon50" class="st0" d="M714.9 173.7h-17l-5.6 25.8-5.7-25.8h-18l14.2 50.1.1.4h17.3l6.2-26.3 6.2 26.3h17.3l14.3-50.5h-17.9l-5.7 25.8z"/></g></svg>