<?xml version="1.0" encoding="UTF-8"?>
<svg xmlns="http://www.w3.org/2000/svg" viewBox="0 0 75 75" width="75px" height="75px">
<g id="surface542189">
<path style=" stroke:none;fill-rule:nonzero;fill:rgb(79.215688%,8.235294%,76.47059%);fill-opacity:1;" d="M 44.53125 7.03125 C 31.613281 7.03125 21.09375 17.550781 21.09375 30.46875 C 21.09375 36.082031 23.0625 41.226562 26.367188 45.265625 L 7.691406 63.941406 L 11.058594 67.308594 L 29.734375 48.632812 C 33.773438 51.9375 38.917969 53.90625 44.53125 53.90625 C 57.449219 53.90625 67.96875 43.386719 67.96875 30.46875 C 67.96875 17.550781 57.449219 7.03125 44.53125 7.03125 Z M 44.53125 11.71875 C 54.914062 11.71875 63.28125 20.085938 63.28125 30.46875 C 63.28125 40.851562 54.914062 49.21875 44.53125 49.21875 C 34.148438 49.21875 25.78125 40.851562 25.78125 30.46875 C 25.78125 20.085938 34.148438 11.71875 44.53125 11.71875 Z M 44.53125 11.71875 "/>
</g>
</svg>
